<svg xmlns="http://www.w3.org/2000/svg" width="58.914" height="30.953" viewBox="0 0 58.914 30.953">
    <defs>
        <clipPath id="2mfe3tta1a">
            <path data-name="Rectangle 6851" style="fill:none" d="M0 0h25.039v15.983H0z"/>
        </clipPath>
        <clipPath id="e00tbj3mfb">
            <path data-name="Rectangle 6847" style="fill:none" d="M0 0h15.747v11.891H0z"/>
        </clipPath>
        <clipPath id="hx0amys4ec">
            <path data-name="Rectangle 6848" style="fill:none" d="M0 0h2.611v2.611H0z"/>
        </clipPath>
        <clipPath id="rrmtd2i25d">
            <path data-name="Rectangle 6849" style="fill:none" d="M0 0h1.91v1.909H0z"/>
        </clipPath>
        <clipPath id="50t9maw6he">
            <path data-name="Rectangle 6851" style="fill:none" d="M0 0h30.911v19.731H0z"/>
        </clipPath>
        <clipPath id="nlygggrzxf">
            <path data-name="Rectangle 6847" style="fill:none" d="M0 0h19.44v14.68H0z"/>
        </clipPath>
        <clipPath id="tze0fqys4g">
            <path data-name="Rectangle 6848" style="fill:none" d="M0 0h3.223v3.223H0z"/>
        </clipPath>
        <clipPath id="b7cp8nf96h">
            <path data-name="Rectangle 6849" style="fill:none" d="M0 0h2.357v2.357H0z"/>
        </clipPath>
    </defs>
    <g data-name="Group 16344">
        <path data-name="Path 3812" d="M32.893 16.746H5.181C4.324 7.132 10.588 0 19.293 0s13.6 7.711 13.6 16.746z" transform="translate(-5.103)" style="fill:#ececec"/>
        <path data-name="Path 3813" d="M32.893 16.746H5.181C4.324 7.132 10.588 0 19.293 0s13.6 7.711 13.6 16.746z" transform="translate(26.021 .164)" style="fill:#ececec"/>
        <g data-name="Group 16340">
            <g data-name="Group 16299" transform="translate(1.671 .927)" style="clip-path:url(#2mfe3tta1a)">
                <g data-name="Group 16298">
                    <g data-name="Group 16297" style="clip-path:url(#2mfe3tta1a)">
                        <path data-name="Path 3784" d="M26.9 11.9H3.166v-.036a11.866 11.866 0 1 1 23.732 0z" transform="translate(-2.513)" style="fill:#c2d9e9"/>
                        <path data-name="Path 3785" d="M24.321 61.755H.718A.718.718 0 0 1 0 61.037v-2.645a.718.718 0 0 1 .718-.718h23.6a.718.718 0 0 1 .718.718v2.645a.718.718 0 0 1-.718.718" transform="translate(0 -45.772)" style="fill:#c2c2c2"/>
                        <path data-name="Path 3786" d="M4.833 24.206h23.044a11.831 11.831 0 0 0-2.688-5.083H7.521a11.835 11.835 0 0 0-2.688 5.083" transform="translate(-3.836 -15.177)" style="fill:#38328c"/>
                        <path data-name="Path 3787" d="M83.475 47.3a.845.845 0 1 1-.845-.845.845.845 0 0 1 .845.845" transform="translate(-64.907 -36.866)" style="fill:#c2c2c2"/>
                        <path data-name="Path 3788" d="M84.3 48.418a.554.554 0 1 1-.554-.554.554.554 0 0 1 .554.554" transform="translate(-66.027 -37.987)" style="fill:#b5292a"/>
                        <g data-name="Group 16290" style="opacity:.2">
                            <g data-name="Group 16289">
                                <g data-name="Group 16288" style="clip-path:url(#e00tbj3mfb)" transform="translate(9.292 4.091)">
                                    <path data-name="Path 3789" d="M15.747 11.173V8.528a.715.715 0 0 0-.033-.2l-.5-.487a.7.7 0 0 0-.185-.027h.065v-.097L7.172 0 .001 6.294l4.85 5.6h10.178a.718.718 0 0 0 .718-.721"/>
                                </g>
                            </g>
                        </g>
                        <path data-name="Path 3790" d="M45.62 12.48a4.93 4.93 0 1 1-4.93-4.93 4.93 4.93 0 0 1 4.93 4.93" transform="translate(-28.381 -5.992)" style="fill:#c2c2c2"/>
                        <path data-name="Path 3791" d="M48.425 16.272a3.944 3.944 0 1 1-3.944-3.944 3.944 3.944 0 0 1 3.944 3.944" transform="translate(-32.172 -9.784)" style="fill:#1f1f1f"/>
                        <path data-name="Path 3792" d="M52.415 21.664a2.541 2.541 0 1 1-2.541-2.541 2.541 2.541 0 0 1 2.541 2.541" transform="translate(-37.564 -15.177)" style="fill:#151515"/>
                        <g data-name="Group 16293" style="opacity:.2">
                            <g data-name="Group 16292">
                                <g data-name="Group 16291" style="clip-path:url(#hx0amys4ec)" transform="translate(9.415 3.458)">
                                    <path data-name="Path 3793" d="M48.233 18.062a1.305 1.305 0 1 1-1.305-1.305 1.305 1.305 0 0 1 1.305 1.305" transform="translate(-45.622 -16.757)" style="fill:#fff"/>
                                </g>
                            </g>
                        </g>
                        <g data-name="Group 16296" style="opacity:.2">
                            <g data-name="Group 16295">
                                <g data-name="Group 16294" style="clip-path:url(#rrmtd2i25d)" transform="translate(13.078 7.121)">
                                    <path data-name="Path 3794" d="M65.283 35.464a.955.955 0 1 1-.955-.955.955.955 0 0 1 .955.955" transform="translate(-63.374 -34.509)" style="fill:#fff"/>
                                </g>
                            </g>
                        </g>
                    </g>
                </g>
            </g>
        </g>
        <g data-name="Group 16339">
            <g data-name="Group 16299" transform="translate(32.499 .927)" style="clip-path:url(#2mfe3tta1a)">
                <g data-name="Group 16298">
                    <g data-name="Group 16297" style="clip-path:url(#2mfe3tta1a)">
                        <path data-name="Path 3784" d="M26.9 11.9H3.166v-.036a11.866 11.866 0 1 1 23.732 0z" transform="translate(-2.513)" style="fill:#c2d9e9"/>
                        <path data-name="Path 3785" d="M24.321 61.755H.718A.718.718 0 0 1 0 61.037v-2.645a.718.718 0 0 1 .718-.718h23.6a.718.718 0 0 1 .718.718v2.645a.718.718 0 0 1-.718.718" transform="translate(0 -45.772)" style="fill:#c2c2c2"/>
                        <path data-name="Path 3786" d="M4.833 24.206h23.044a11.831 11.831 0 0 0-2.688-5.083H7.521a11.835 11.835 0 0 0-2.688 5.083" transform="translate(-3.836 -15.177)" style="fill:#38328c"/>
                        <path data-name="Path 3787" d="M83.475 47.3a.845.845 0 1 1-.845-.845.845.845 0 0 1 .845.845" transform="translate(-64.907 -36.866)" style="fill:#c2c2c2"/>
                        <path data-name="Path 3788" d="M84.3 48.418a.554.554 0 1 1-.554-.554.554.554 0 0 1 .554.554" transform="translate(-66.027 -37.987)" style="fill:#b5292a"/>
                        <g data-name="Group 16290" style="opacity:.2">
                            <g data-name="Group 16289">
                                <g data-name="Group 16288" style="clip-path:url(#e00tbj3mfb)" transform="translate(9.292 4.091)">
                                    <path data-name="Path 3789" d="M15.747 11.173V8.528a.715.715 0 0 0-.033-.2l-.5-.487a.7.7 0 0 0-.185-.027h.065v-.097L7.172 0 .001 6.294l4.85 5.6h10.178a.718.718 0 0 0 .718-.721"/>
                                </g>
                            </g>
                        </g>
                        <path data-name="Path 3790" d="M45.62 12.48a4.93 4.93 0 1 1-4.93-4.93 4.93 4.93 0 0 1 4.93 4.93" transform="translate(-28.381 -5.992)" style="fill:#c2c2c2"/>
                        <path data-name="Path 3791" d="M48.425 16.272a3.944 3.944 0 1 1-3.944-3.944 3.944 3.944 0 0 1 3.944 3.944" transform="translate(-32.172 -9.784)" style="fill:#1f1f1f"/>
                        <path data-name="Path 3792" d="M52.415 21.664a2.541 2.541 0 1 1-2.541-2.541 2.541 2.541 0 0 1 2.541 2.541" transform="translate(-37.564 -15.177)" style="fill:#151515"/>
                        <g data-name="Group 16293" style="opacity:.2">
                            <g data-name="Group 16292">
                                <g data-name="Group 16291" style="clip-path:url(#hx0amys4ec)" transform="translate(9.415 3.458)">
                                    <path data-name="Path 3793" d="M48.233 18.062a1.305 1.305 0 1 1-1.305-1.305 1.305 1.305 0 0 1 1.305 1.305" transform="translate(-45.622 -16.757)" style="fill:#fff"/>
                                </g>
                            </g>
                        </g>
                        <g data-name="Group 16296" style="opacity:.2">
                            <g data-name="Group 16295">
                                <g data-name="Group 16294" style="clip-path:url(#rrmtd2i25d)" transform="translate(13.078 7.121)">
                                    <path data-name="Path 3794" d="M65.283 35.464a.955.955 0 1 1-.955-.955.955.955 0 0 1 .955.955" transform="translate(-63.374 -34.509)" style="fill:#fff"/>
                                </g>
                            </g>
                        </g>
                    </g>
                </g>
            </g>
        </g>
        <g data-name="Group 16300">
            <g data-name="Group 16299" transform="translate(12.471 11.222)" style="clip-path:url(#50t9maw6he)">
                <g data-name="Group 16298">
                    <g data-name="Group 16297" style="clip-path:url(#50t9maw6he)">
                        <path data-name="Path 3784" d="M32.464 14.693H3.166v-.044a14.649 14.649 0 1 1 29.3 0z" transform="translate(-2.359)" style="fill:#c2d9e9"/>
                        <path data-name="Path 3785" d="M30.024 62.712H.887A.887.887 0 0 1 0 61.826v-3.265a.887.887 0 0 1 .887-.887h29.137a.887.887 0 0 1 .887.887v3.265a.887.887 0 0 1-.887.887" transform="translate(0 -42.981)" style="fill:#c2c2c2"/>
                        <path data-name="Path 3786" d="M4.833 25.4h28.449a14.605 14.605 0 0 0-3.318-6.275H8.151A14.611 14.611 0 0 0 4.833 25.4" transform="translate(-3.602 -14.251)" style="fill:#38328c"/>
                        <path data-name="Path 3787" d="M83.871 47.5a1.044 1.044 0 1 1-1.044-1.044 1.044 1.044 0 0 1 1.044 1.044" transform="translate(-60.949 -34.618)" style="fill:#c2c2c2"/>
                        <path data-name="Path 3788" d="M84.563 48.548a.684.684 0 1 1-.684-.684.684.684 0 0 1 .684.684" transform="translate(-62.001 -35.67)" style="fill:#b5292a"/>
                        <g data-name="Group 16290" style="opacity:.2">
                            <g data-name="Group 16289">
                                <g data-name="Group 16288" style="clip-path:url(#nlygggrzxf)" transform="translate(11.471 5.051)">
                                    <path data-name="Path 3789" d="M19.44 13.793v-3.264a.883.883 0 0 0-.041-.251l-.618-.6a.869.869 0 0 0-.229-.034h.08v-.113L8.854.002 0 7.773l5.988 6.91h12.565a.887.887 0 0 0 .887-.887"/>
                                </g>
                            </g>
                        </g>
                        <path data-name="Path 3790" d="M47.932 13.636a6.086 6.086 0 1 1-6.085-6.086 6.086 6.086 0 0 1 6.086 6.086" transform="translate(-26.65 -5.627)" style="fill:#c2c2c2"/>
                        <path data-name="Path 3791" d="M50.275 17.2a4.869 4.869 0 1 1-4.868-4.868 4.869 4.869 0 0 1 4.868 4.868" transform="translate(-30.21 -9.187)" style="fill:#1f1f1f"/>
                        <path data-name="Path 3792" d="M53.607 22.26a3.138 3.138 0 1 1-3.137-3.137 3.137 3.137 0 0 1 3.137 3.137" transform="translate(-35.274 -14.251)" style="fill:#151515"/>
                        <g data-name="Group 16293" style="opacity:.2">
                            <g data-name="Group 16292">
                                <g data-name="Group 16291" style="clip-path:url(#tze0fqys4g)" transform="translate(11.623 4.269)">
                                    <path data-name="Path 3793" d="M48.845 18.368a1.611 1.611 0 1 1-1.611-1.611 1.611 1.611 0 0 1 1.611 1.611" transform="translate(-45.622 -16.757)" style="fill:#fff"/>
                                </g>
                            </g>
                        </g>
                        <g data-name="Group 16296" style="opacity:.2">
                            <g data-name="Group 16295">
                                <g data-name="Group 16294" style="clip-path:url(#b7cp8nf96h)" transform="translate(16.145 8.791)">
                                    <path data-name="Path 3794" d="M65.731 35.688a1.179 1.179 0 1 1-1.179-1.179 1.178 1.178 0 0 1 1.179 1.179" transform="translate(-63.374 -34.509)" style="fill:#fff"/>
                                </g>
                            </g>
                        </g>
                    </g>
                </g>
            </g>
        </g>
    </g>
</svg>
