<svg id="Group_16343" data-name="Group 16343" xmlns="http://www.w3.org/2000/svg" width="42.32" height="52.377" viewBox="0 0 42.32 52.377">
    <defs>
        <clipPath id="clip-path">
            <path id="Rectangle_6862" data-name="Rectangle 6862" style="fill:none" d="M0 0h42.32v52.377H0z"/>
        </clipPath>
        <clipPath id="clip-path-2">
            <path id="Path_3795" data-name="Path 3795" d="M7.063 2.346C2.455 4.353 0 7.408 0 11.171l.112 19.042.009.07c.577 4.463 3.212 9.007 7.8 13.478a57.593 57.593 0 0 0 10.351 7.845 5.474 5.474 0 0 0 2.979.77 5.669 5.669 0 0 0 2.959-.937 59.755 59.755 0 0 0 9.99-8.18c4.285-4.467 6.71-8.884 7.236-13.157l.008-.067.1-18.195c0-3.588-2.251-6.614-6.541-8.768A33.65 33.65 0 0 0 21.248.02Q20.612 0 19.982 0A33.163 33.163 0 0 0 7.063 2.346" transform="translate(0 -.002)" style="fill:none"/>
        </clipPath>
        <clipPath id="clip-path-3">
            <path id="Path_3796" data-name="Path 3796" d="M61.255 2.346c-4.547 2.007-6.97 5.062-6.97 8.825l.11 19.042.009.07c.569 4.463 3.169 9.007 7.695 13.478a56.9 56.9 0 0 0 10.214 7.845 5.346 5.346 0 0 0 2.94.77 5.543 5.543 0 0 0 2.92-.937 59.125 59.125 0 0 0 9.856-8.181c4.229-4.467 6.621-8.884 7.141-13.157l.008-.067.1-18.195c0-3.588-2.221-6.614-6.454-8.768A32.84 32.84 0 0 0 75.252.02Q74.625 0 74 0a32.344 32.344 0 0 0-12.745 2.346" transform="translate(-54.285 -.002)" style="fill:none"/>
        </clipPath>
        <clipPath id="clip-path-4">
            <path id="Path_3797" data-name="Path 3797" d="m105.741 57.885.111 18.946C107.1 86.5 118.46 94.324 123.408 97.3a4.368 4.368 0 0 0 4.637-.125c4.845-3.188 15.583-11.213 16.73-20.507l.1-18.145c0-6.958-10.458-10.649-20.561-10.649-9.442 0-18.575 3.223-18.575 10.013" transform="translate(-105.741 -47.872)" style="fill:none"/>
        </clipPath>
        <clipPath id="clip-path-6">
            <path id="Path_3800" data-name="Path 3800" d="m575.837 906.473-13.854.123a1.909 1.909 0 0 0-1.933 1.854v8.877a1.789 1.789 0 0 0 1.926 1.746l13.805-.565a1.859 1.859 0 0 0 1.783-1.816l.044-8.48a1.736 1.736 0 0 0-1.755-1.739h-.016" transform="translate(-560.05 -906.473)" style="fill:none"/>
        </clipPath>
        <clipPath id="clip-path-8">
            <path id="Rectangle_6859" data-name="Rectangle 6859" style="fill:none" d="M0 0h3.584v6.684H0z"/>
        </clipPath>
        <clipPath id="clip-path-9">
            <path id="Path_3801" data-name="Path 3801" d="M857.143 1047.155a1.715 1.715 0 0 0-1.866-1.69 1.832 1.832 0 0 0-1.715 1.674 1.669 1.669 0 0 0 .893 1.577.619.619 0 0 1 .31.66l-.4 2.242a.451.451 0 0 0 .473.526l1.014-.036a.488.488 0 0 0 .473-.556l-.388-2.221a.661.661 0 0 1 .331-.672 1.771 1.771 0 0 0 .875-1.5" transform="translate(-853.559 -1045.461)" style="fill:none"/>
        </clipPath>
        <clipPath id="clip-path-10">
            <path id="Path_3802" data-name="Path 3802" d="M614.811 556.266v2a.784.784 0 0 0 .809.765.794.794 0 0 0 .806-.772v-1.995a3.676 3.676 0 0 1 3.775-3.6l4.522.045a3.593 3.593 0 0 1 3.6 3.56l-.008 1.934a.739.739 0 0 0 .751.738.756.756 0 0 0 .755-.745l.009-1.926a5.113 5.113 0 0 0-5.1-5.067l-4.524-.063h-.078a5.227 5.227 0 0 0-5.316 5.122" transform="translate(-614.81 -551.144)" style="fill:none"/>
        </clipPath>
        <style>
            
        </style>
    </defs>
    <g id="Group_16322" data-name="Group 16322" style="clip-path:url(#clip-path)">
        <g id="Group_16304" data-name="Group 16304" transform="translate(1.326)">
            <g id="Group_16303" data-name="Group 16303" style="clip-path:url(#clip-path-3)">
                <path id="Rectangle_6853" data-name="Rectangle 6853" transform="rotate(-31.46 13.653 48.523)" style="fill:#6c63ff" d="M0 0h62.311v66.094H0z"/>
            </g>
        </g>
        <g id="Group_16306" data-name="Group 16306" transform="translate(2.584 1.17)">
            <g id="Group_16305" data-name="Group 16305" style="clip-path:url(#clip-path-4)">
                <path id="Rectangle_6854" data-name="Rectangle 6854" transform="rotate(-26.442 11.194 47.647)" style="fill:#38328c" d="M0 0h57.43v62.445H0z"/>
            </g>
        </g>
        <g id="Group_16310" data-name="Group 16310">
            <g id="Group_16309" data-name="Group 16309" style="clip-path:url(#clip-path)">
                <path id="Path_3799" data-name="Path 3799" d="M306.135 281.3a52.253 52.253 0 0 1-8.908-6.855c-3.487-3.432-5.506-6.726-5.98-9.773l-.108-18.524c0-1.278 1.178-2.451 3.483-3.471a28.283 28.283 0 0 1 11.513-1.885 27.933 27.933 0 0 1 11.227 2.342c2.181 1.079 3.285 2.257 3.288 3.5l-.1 17.921c-.445 2.957-2.349 6.19-5.678 9.629a54.261 54.261 0 0 1-8.736 7.113" transform="translate(-284.025 -234.903)" style="fill:#f4f7fa"/>
            </g>
        </g>
        <g id="Group_16312" data-name="Group 16312" transform="translate(13.684 22.149)">
            <g id="Group_16311" data-name="Group 16311" style="clip-path:url(#clip-path-6)">
                <path id="Rectangle_6857" data-name="Rectangle 6857" transform="rotate(-61.6 5.557 9.325)" style="fill:#6c63ff" d="M0 0h19.477v21.464H0z"/>
            </g>
        </g>
        <g id="Group_16319" data-name="Group 16319">
            <g id="Group_16318" data-name="Group 16318" style="clip-path:url(#clip-path)">
                <g id="Group_16317" data-name="Group 16317" transform="translate(20.856 25.545)" style="opacity:.8;mix-blend-mode:multiply;isolation:isolate">
                    <g id="Group_16316" data-name="Group 16316">
                        <g id="Group_16315" data-name="Group 16315" style="clip-path:url(#clip-path-8)">
                            <g id="Group_16314" data-name="Group 16314">
                                <g id="Group_16313" data-name="Group 16313" style="clip-path:url(#clip-path-9)">
                                    <path id="Rectangle_6858" data-name="Rectangle 6858" transform="rotate(-12.41 .423 6.8)" style="fill:#fff" d="M0 0h4.989v7.375H0z"/>
                                </g>
                            </g>
                        </g>
                    </g>
                </g>
            </g>
        </g>
        <g id="Group_16321" data-name="Group 16321" transform="translate(15.022 13.467)">
            <g id="Group_16320" data-name="Group 16320" style="clip-path:url(#clip-path-10)">
                <path id="Rectangle_6861" data-name="Rectangle 6861" transform="rotate(-61.587 3.471 5.824)" style="fill:#6c63ff" d="M0 0h14.094v16.976H0z"/>
            </g>
        </g>
    </g>
</svg>
